<?xml version="1.0" standalone="no"?><svg xmlns="http://www.w3.org/2000/svg" viewBox="0 0 1440 320"><path fill="#c3bef0" fill-opacity="1" d="M0,256L30,245.3C60,235,120,213,180,192C240,171,300,149,360,122.7C420,96,480,64,540,53.3C600,43,660,53,720,90.7C780,128,840,192,900,218.7C960,245,1020,235,1080,218.7C1140,203,1200,181,1260,181.3C1320,181,1380,203,1410,213.3L1440,224L1440,320L1410,320C1380,320,1320,320,1260,320C1200,320,1140,320,1080,320C1020,320,960,320,900,320C840,320,780,320,720,320C660,320,600,320,540,320C480,320,420,320,360,320C300,320,240,320,180,320C120,320,60,320,30,320L0,320Z"></path></svg>